<?xml version="1.0" encoding="UTF-8" standalone="no"?>
<!-- Created with Inkscape (http://www.inkscape.org/) -->

<svg
   width="1024"
   height="1024"
   viewBox="0 0 270.93334 270.93333"
   version="1.1"
   id="svg556"
   sodipodi:docname="icon_dark.svg"
   inkscape:version="1.2.2 (b0a8486541, 2022-12-01)"
   xmlns:inkscape="http://www.inkscape.org/namespaces/inkscape"
   xmlns:sodipodi="http://sodipodi.sourceforge.net/DTD/sodipodi-0.dtd"
   xmlns="http://www.w3.org/2000/svg"
   xmlns:svg="http://www.w3.org/2000/svg">
  <sodipodi:namedview
     id="namedview190"
     pagecolor="#000000"
     bordercolor="#999999"
     borderopacity="1"
     inkscape:showpageshadow="0"
     inkscape:pageopacity="0"
     inkscape:pagecheckerboard="0"
     inkscape:deskcolor="#d1d1d1"
     showgrid="false"
     inkscape:zoom="0.56787109"
     inkscape:cx="758.09458"
     inkscape:cy="761.61651"
     inkscape:window-width="1720"
     inkscape:window-height="1386"
     inkscape:window-x="0"
     inkscape:window-y="54"
     inkscape:window-maximized="1"
     inkscape:current-layer="svg556" />
  <defs
     id="defs553" />
  <g
     id="layer1"
     transform="matrix(1.5290657,0,0,1.5290657,-71.670766,-71.670766)">
    <g
       id="g726"
       transform="translate(9.9574162,58.252451)">
      <g
         fill="none"
         id="g192"
         transform="matrix(0.26458333,0,0,0.26458333,-10.71947,-53.267273)">
        <path
           d="m 405.5,746.5 c -6,-1.9 -13.2,-4.3 -16,-5.4 -4.6,-1.7 -5,-2.2 -5.3,-5.4 -0.3,-3.3 0,-3.8 4,-5.8 10.6,-5.4 26.7,-17 33.4,-24.2 16.5,-17.7 25.2,-41.6 24.1,-66 -0.4,-10 -0.8,-11.4 -4.1,-18.3 -4.6,-9.1 -15,-19.9 -32.6,-33.5 l -12,-9.3 V 540 h 3.5 c 2.8,0 3.7,0.5 5,3 2.2,4.3 17.1,22.7 27.3,33.7 23.9,25.9 30.2,39.7 30.2,66.1 0,22.3 -4.4,38.6 -16.6,62.1 -4.1,7.9 -7.3,14.5 -7.1,14.7 0.2,0.2 14.9,-1.2 32.8,-3.1 75.3,-8.2 89.4,-9.7 128.7,-13.5 22.7,-2.2 44,-4 47.3,-4 h 5.9 v 6.7 l -68.7,13.8 c -128.4,25.8 -153.7,30.5 -163.8,30.4 -2.8,0 -9.9,-1.5 -16,-3.4"
           id="path190" />
      </g>
      <g
         fill="#130c0a"
         id="g196"
         transform="matrix(0.26458333,0,0,0.26458333,-10.71947,-53.267273)"
         style="fill:#ffffff;fill-opacity:1">
        <path
           d="m 419.9,809.9 c -3.1,-0.8 -20.6,-8.6 -64.4,-28.7 -56,-25.6 -63,-28.9 -63.3,-30.5 -0.2,-0.7 2.4,-7.5 5.7,-14.9 3.3,-7.5 7.2,-16.6 8.7,-20.2 2.4,-6.1 2.8,-6.6 6.2,-7.1 20.7,-3.4 43.6,-12.1 59.2,-22.4 12.6,-8.3 24.5,-22.4 28.6,-33.6 2.7,-7.5 2.5,-22.7 -0.3,-28 -5,-9.4 -11.5,-12.6 -37.8,-19 C 324.6,596.4 301,588.9 277.7,578.6 240.2,562 210,538.3 189.6,509.5 l -7.8,-11 102.7,-0.5 102.8,-0.5 2.6,-5.5 2.6,-5.5 112.5,0.3 c 61.9,0.2 135.5,0.7 163.5,1.2 142.9,2.6 179,3.3 179.4,3.6 0.7,0.6 -4.8,9 -10.4,15.6 -6.6,7.9 -19.8,19.2 -31.5,27 -10.6,7.1 -32.6,18.1 -58.5,29.3 -47.7,20.8 -63.9,30.8 -74.7,46.4 -10,14.3 -10.4,35.3 -1.1,52.1 6.4,11.5 18.1,21.4 35.8,30.3 11.7,5.9 18.3,8.4 32.9,12.2 l 11.9,3.2 8.4,20.9 c 4.5,11.5 8.2,21.8 8.1,22.9 -0.3,2.1 -21.2,5.8 -261.3,45.3 -89.3,14.8 -84.3,14 -87.6,13.1 M 436,745 c 28.2,-4.5 216.7,-42.4 212.9,-42.8 -1.5,-0.2 -21.5,1.5 -44.5,3.8 -40.6,3.9 -54.4,5.3 -134.3,14 -20.5,2.3 -37.5,3.9 -37.8,3.7 -0.2,-0.3 3.5,-7.6 8.2,-16.3 13.8,-25.8 18.2,-39.3 19.2,-59.9 1.3,-26.2 -5.3,-41.2 -29.9,-67.8 -10.2,-11 -25.1,-29.4 -27.3,-33.7 -0.8,-1.6 -1.8,-3 -2,-3 -0.3,0 -0.5,7.3 -0.5,16.3 v 16.3 l 12,9.3 c 17.7,13.7 28,24.4 32.6,33.6 3.7,7.5 3.8,7.9 4.2,21.3 1,36.7 -12.9,64.3 -42.2,83.6 -6.1,4.1 -13.1,8.3 -15.5,9.6 -2.4,1.2 -4,2.5 -3.5,3 0.8,0.8 25.1,9.1 29.9,10.3 3.6,0.9 5.9,0.7 18.5,-1.3 M 540.9,462.3 C 525.4,428.8 503,379 503,378 c 0,-1.7 12.1,-21.4 29.8,-48.3 3.5,-5.4 6.2,-10.1 5.9,-10.4 -0.6,-0.6 -13.3,5.5 -25.5,12.2 l -8.3,4.6 0.7,-6.3 c 3.1,-29.4 5.3,-46.1 6,-46.8 0.5,-0.5 12.4,-6.6 26.4,-13.5 14,-7 30.3,-15.4 36.1,-18.6 5.8,-3.2 10.8,-5.9 11.1,-5.9 0.3,0 -0.3,4.6 -1.4,10.3 -3,16.4 -7.8,47 -7.8,50 0,1.5 3,10.3 6.6,19.5 7.1,18 21.3,54.5 27.4,70.7 2.1,5.5 6.6,17.2 9.9,25.9 7,18.3 7.4,20.9 3.4,22.4 -19.3,7.5 -75.4,27.2 -77.3,27.2 -0.6,0 -2.8,-3.9 -5.1,-8.7 m 81.4,-74.5 c -1.1,-2.9 -5,-13.1 -8.7,-22.7 -3.7,-9.5 -6.5,-17.8 -6.3,-18.5 0.3,-0.6 3.6,-2.2 7.3,-3.4 6.2,-2.2 20.6,-7.6 93.4,-35.7 11.8,-4.6 35.9,-14 53.5,-21 28.8,-11.4 32.5,-12.6 36.8,-12.2 3.4,0.3 5.6,1.2 7.3,2.8 2.8,2.8 15.8,40.1 14.9,42.8 -1.5,4.8 -4.3,6.2 -40.5,18.7 -8.5,3 -16.2,5.7 -17,6 -0.8,0.4 -7.1,2.6 -14,4.9 -11.4,4 -25.9,9.1 -98.8,34.9 -13.4,4.7 -24.7,8.6 -25.1,8.6 -0.5,0 -1.7,-2.4 -2.8,-5.2"
           id="path194"
           style="fill:#ffffff;fill-opacity:1" />
      </g>
      <g
         fill="#cd2928"
         id="g200"
         transform="matrix(0.26458333,0,0,0.26458333,-10.71947,-53.267273)">
        <path
           d="M 355.5,481.8 C 329.3,461 315.8,434.7 314.3,402 c -1.1,-26.6 6.3,-51.4 23.1,-77 9.9,-15.1 33.9,-44 36.6,-44 0.4,0 1,5.5 1.3,12.2 1.3,26.4 8.2,40.1 23.1,45.7 10,3.7 9.2,5.3 9.9,-20.6 0.3,-12.6 1.1,-26.6 1.7,-31.3 4.2,-32.8 19.8,-56.5 52.7,-79.8 18.7,-13.2 49.2,-31.2 53.1,-31.2 2,0 2,0.3 -1.3,7.3 -5.4,11.5 -8.6,23.8 -9.2,35.7 -0.8,14.8 1.8,25.1 9.3,37.6 3.2,5.3 3.4,6 1.9,6.9 -7,4.2 -13.8,10.1 -14.9,12.8 -0.8,1.8 -3.7,14.2 -6.6,27.7 -3,13.5 -5.7,24.9 -6.1,25.4 -0.4,0.4 -7.8,-4.9 -16.4,-11.8 -8.7,-6.9 -16.2,-12.6 -16.7,-12.6 -3,0 3.8,18.2 17.6,47.7 10.6,22.6 19.6,43 19.6,44.3 0,2.3 -5.2,0.7 -13.6,-4.1 -9.5,-5.5 -26.7,-14.4 -42.5,-22 l -9.6,-4.6 9.9,22.1 c 5.5,12.2 13,28.9 16.9,37.2 11.4,24.8 9.5,26.7 -13.6,13.2 -20.9,-12.2 -29.4,-17.2 -46.9,-28 -8.8,-5.4 -16.1,-9.6 -16.3,-9.4 -0.8,0.7 12.4,32.9 21.1,51.9 5.6,12.1 6.4,11.4 -12.9,10.9 l -16.4,-0.5 -1.1,2.4 c -0.5,1.3 -2.5,6.3 -4.2,11.1 l -3.3,8.6 z M 655.8,468.3 C 641.6,468 641,467.9 641,465.9 c 0,-1.2 0.8,-3.3 1.9,-4.7 2.1,-3 7.9,-14.3 11.6,-22.7 l 2.4,-5.5 -3.9,2 c -8.6,4.4 -10,3 -13,-12.5 -1,-4.9 -2.1,-9.9 -2.4,-11 -0.8,-2.4 -1.1,-2.3 25.7,-12 11.1,-4 23.6,-8.6 27.8,-10.1 4.1,-1.5 8.2,-2.5 9.1,-2.2 2,0.8 6.3,18.3 7.8,31.8 1.7,15.7 -0.4,33.7 -5.2,45.3 l -2,4.7 -15.2,-0.2 c -8.3,-0.1 -21.7,-0.4 -29.8,-0.5 m -58.7,-152.2 -5.3,-13 3,-10.8 c 1.7,-5.9 3.6,-12.7 4.2,-15 0.6,-2.4 1.6,-4.3 2.3,-4.3 1,0 28.7,30.2 38.2,41.7 l 2.6,3.2 -3.8,1.7 c -2.1,0.9 -7.6,2.7 -12.3,3.9 -4.7,1.3 -11,3.1 -14,3.9 -9.6,2.7 -9,3.1 -14.9,-11.3"
           id="path198" />
      </g>
      <g
         fill="#f6801e"
         id="g204"
         transform="matrix(0.26458333,0,0,0.26458333,-10.71947,-53.267273)">
        <path
           d="m 612.6,467.1 c -0.8,-1.2 0.9,-2.3 8.9,-5.6 6.6,-2.7 22.6,-10.4 25.2,-12.3 1.4,-0.9 -0.2,-5.8 -8.9,-28.1 -4.3,-10.9 -4.2,-12 0.8,-12.1 2.7,0 2.8,0.2 4.9,13.5 1,6.1 1.9,11.1 2,11.3 0.2,0.2 4.4,-1.8 9.5,-4.3 5.1,-2.5 9.4,-4.5 9.5,-4.3 0.6,0.5 -14.2,31.7 -17.7,37.5 l -3.2,5.3 h -15.3 c -8.3,0 -15.4,-0.4 -15.7,-0.9 m -182.7,-1.8 -30.5,-0.3 -5.1,-11.3 c -12.9,-28.2 -24.8,-59.3 -23.2,-60.3 0.6,-0.3 6.7,2.9 13.7,7.2 27.9,17.1 63,37.9 72.5,43.1 0.9,0.5 -0.3,-2.3 -5.8,-14.2 -3.5,-7.4 -30,-66.4 -31.2,-69.2 -0.3,-0.7 0,-1.3 0.7,-1.3 1.6,0 50.5,24.6 61.4,30.9 4.9,2.8 9.2,5.1 9.5,5.1 0.3,0.1 6.1,12.5 12.7,27.8 6.7,15.2 13.8,31.2 15.7,35.5 l 3.6,7.7 -31.7,-0.2 c -17.4,-0.2 -45.5,-0.4 -62.3,-0.5"
           id="path202" />
      </g>
    </g>
  </g>
</svg>
